<mxfile host="app.diagrams.net" agent="Mozilla/5.0 (Windows NT 10.0; Win64; x64) AppleWebKit/537.36 (KHTML, like Gecko) Chrome/128.0.0.0 Safari/537.36 OPR/114.0.0.0" version="25.0.3">
  <diagram id="C5RBs43oDa-KdzZeNtuy" name="Page-1">
    <mxGraphModel dx="4190" dy="1823" grid="1" gridSize="10" guides="1" tooltips="1" connect="1" arrows="1" fold="1" page="1" pageScale="1" pageWidth="827" pageHeight="1169" math="0" shadow="0">
      <root>
        <mxCell id="WIyWlLk6GJQsqaUBKTNV-0" />
        <mxCell id="WIyWlLk6GJQsqaUBKTNV-1" parent="WIyWlLk6GJQsqaUBKTNV-0" />
        <mxCell id="BuEJ6Aap__L7EWb8mCtW-2" style="edgeStyle=orthogonalEdgeStyle;rounded=0;orthogonalLoop=1;jettySize=auto;html=1;entryX=0.5;entryY=0;entryDx=0;entryDy=0;" edge="1" parent="WIyWlLk6GJQsqaUBKTNV-1" source="BuEJ6Aap__L7EWb8mCtW-0" target="BuEJ6Aap__L7EWb8mCtW-1">
          <mxGeometry relative="1" as="geometry" />
        </mxCell>
        <mxCell id="BuEJ6Aap__L7EWb8mCtW-0" value="Start" style="strokeWidth=2;html=1;shape=mxgraph.flowchart.terminator;whiteSpace=wrap;" vertex="1" parent="WIyWlLk6GJQsqaUBKTNV-1">
          <mxGeometry x="120" y="90" width="100" height="60" as="geometry" />
        </mxCell>
        <mxCell id="BuEJ6Aap__L7EWb8mCtW-5" style="edgeStyle=orthogonalEdgeStyle;rounded=0;orthogonalLoop=1;jettySize=auto;html=1;entryX=0.5;entryY=0;entryDx=0;entryDy=0;" edge="1" parent="WIyWlLk6GJQsqaUBKTNV-1" source="BuEJ6Aap__L7EWb8mCtW-1" target="BuEJ6Aap__L7EWb8mCtW-4">
          <mxGeometry relative="1" as="geometry" />
        </mxCell>
        <mxCell id="BuEJ6Aap__L7EWb8mCtW-1" value="int i, row, col" style="shape=hexagon;perimeter=hexagonPerimeter2;whiteSpace=wrap;html=1;fixedSize=1;" vertex="1" parent="WIyWlLk6GJQsqaUBKTNV-1">
          <mxGeometry x="110" y="180" width="120" height="80" as="geometry" />
        </mxCell>
        <mxCell id="BuEJ6Aap__L7EWb8mCtW-7" style="edgeStyle=orthogonalEdgeStyle;rounded=0;orthogonalLoop=1;jettySize=auto;html=1;entryX=0.5;entryY=0;entryDx=0;entryDy=0;" edge="1" parent="WIyWlLk6GJQsqaUBKTNV-1" source="BuEJ6Aap__L7EWb8mCtW-4" target="BuEJ6Aap__L7EWb8mCtW-6">
          <mxGeometry relative="1" as="geometry" />
        </mxCell>
        <mxCell id="BuEJ6Aap__L7EWb8mCtW-4" value="i = 0" style="rounded=0;whiteSpace=wrap;html=1;" vertex="1" parent="WIyWlLk6GJQsqaUBKTNV-1">
          <mxGeometry x="110" y="290" width="120" height="60" as="geometry" />
        </mxCell>
        <mxCell id="BuEJ6Aap__L7EWb8mCtW-9" style="edgeStyle=orthogonalEdgeStyle;rounded=0;orthogonalLoop=1;jettySize=auto;html=1;entryX=0.5;entryY=0;entryDx=0;entryDy=0;" edge="1" parent="WIyWlLk6GJQsqaUBKTNV-1" source="BuEJ6Aap__L7EWb8mCtW-6" target="BuEJ6Aap__L7EWb8mCtW-8">
          <mxGeometry relative="1" as="geometry" />
        </mxCell>
        <mxCell id="BuEJ6Aap__L7EWb8mCtW-10" value="True" style="edgeLabel;html=1;align=center;verticalAlign=middle;resizable=0;points=[];" vertex="1" connectable="0" parent="BuEJ6Aap__L7EWb8mCtW-9">
          <mxGeometry x="-0.3863" y="-1" relative="1" as="geometry">
            <mxPoint as="offset" />
          </mxGeometry>
        </mxCell>
        <mxCell id="BuEJ6Aap__L7EWb8mCtW-6" value="i &amp;lt; 4" style="rhombus;whiteSpace=wrap;html=1;" vertex="1" parent="WIyWlLk6GJQsqaUBKTNV-1">
          <mxGeometry x="120" y="380" width="100" height="100" as="geometry" />
        </mxCell>
        <mxCell id="BuEJ6Aap__L7EWb8mCtW-12" style="edgeStyle=orthogonalEdgeStyle;rounded=0;orthogonalLoop=1;jettySize=auto;html=1;entryX=0.5;entryY=0;entryDx=0;entryDy=0;" edge="1" parent="WIyWlLk6GJQsqaUBKTNV-1" source="BuEJ6Aap__L7EWb8mCtW-8" target="BuEJ6Aap__L7EWb8mCtW-11">
          <mxGeometry relative="1" as="geometry" />
        </mxCell>
        <mxCell id="BuEJ6Aap__L7EWb8mCtW-8" value="i++" style="rounded=0;whiteSpace=wrap;html=1;" vertex="1" parent="WIyWlLk6GJQsqaUBKTNV-1">
          <mxGeometry x="110" y="530" width="120" height="60" as="geometry" />
        </mxCell>
        <mxCell id="BuEJ6Aap__L7EWb8mCtW-14" style="edgeStyle=orthogonalEdgeStyle;rounded=0;orthogonalLoop=1;jettySize=auto;html=1;entryX=0.5;entryY=0;entryDx=0;entryDy=0;" edge="1" parent="WIyWlLk6GJQsqaUBKTNV-1" source="BuEJ6Aap__L7EWb8mCtW-11" target="BuEJ6Aap__L7EWb8mCtW-13">
          <mxGeometry relative="1" as="geometry" />
        </mxCell>
        <mxCell id="BuEJ6Aap__L7EWb8mCtW-11" value="Display&lt;div&gt;&quot;Sudoku Puzzle&amp;nbsp;&lt;/div&gt;&lt;div&gt;i + 1 : &quot;&lt;/div&gt;" style="shape=parallelogram;perimeter=parallelogramPerimeter;whiteSpace=wrap;html=1;fixedSize=1;" vertex="1" parent="WIyWlLk6GJQsqaUBKTNV-1">
          <mxGeometry x="110" y="620" width="120" height="60" as="geometry" />
        </mxCell>
        <mxCell id="BuEJ6Aap__L7EWb8mCtW-16" style="edgeStyle=orthogonalEdgeStyle;rounded=0;orthogonalLoop=1;jettySize=auto;html=1;entryX=0.5;entryY=0;entryDx=0;entryDy=0;" edge="1" parent="WIyWlLk6GJQsqaUBKTNV-1" source="BuEJ6Aap__L7EWb8mCtW-13" target="BuEJ6Aap__L7EWb8mCtW-15">
          <mxGeometry relative="1" as="geometry" />
        </mxCell>
        <mxCell id="BuEJ6Aap__L7EWb8mCtW-13" value="row = 0" style="rounded=0;whiteSpace=wrap;html=1;" vertex="1" parent="WIyWlLk6GJQsqaUBKTNV-1">
          <mxGeometry x="110" y="710" width="120" height="60" as="geometry" />
        </mxCell>
        <mxCell id="BuEJ6Aap__L7EWb8mCtW-18" style="edgeStyle=orthogonalEdgeStyle;rounded=0;orthogonalLoop=1;jettySize=auto;html=1;entryX=0.5;entryY=0;entryDx=0;entryDy=0;" edge="1" parent="WIyWlLk6GJQsqaUBKTNV-1" source="BuEJ6Aap__L7EWb8mCtW-15" target="BuEJ6Aap__L7EWb8mCtW-17">
          <mxGeometry relative="1" as="geometry" />
        </mxCell>
        <mxCell id="BuEJ6Aap__L7EWb8mCtW-19" value="True" style="edgeLabel;html=1;align=center;verticalAlign=middle;resizable=0;points=[];" vertex="1" connectable="0" parent="BuEJ6Aap__L7EWb8mCtW-18">
          <mxGeometry x="-0.3733" relative="1" as="geometry">
            <mxPoint as="offset" />
          </mxGeometry>
        </mxCell>
        <mxCell id="BuEJ6Aap__L7EWb8mCtW-55" style="edgeStyle=orthogonalEdgeStyle;rounded=0;orthogonalLoop=1;jettySize=auto;html=1;entryX=0;entryY=0.5;entryDx=0;entryDy=0;" edge="1" parent="WIyWlLk6GJQsqaUBKTNV-1" source="BuEJ6Aap__L7EWb8mCtW-15" target="BuEJ6Aap__L7EWb8mCtW-54">
          <mxGeometry relative="1" as="geometry" />
        </mxCell>
        <mxCell id="BuEJ6Aap__L7EWb8mCtW-56" value="False" style="edgeLabel;html=1;align=center;verticalAlign=middle;resizable=0;points=[];" vertex="1" connectable="0" parent="BuEJ6Aap__L7EWb8mCtW-55">
          <mxGeometry x="-0.2238" y="2" relative="1" as="geometry">
            <mxPoint as="offset" />
          </mxGeometry>
        </mxCell>
        <mxCell id="BuEJ6Aap__L7EWb8mCtW-15" value="row &amp;lt; 9" style="rhombus;whiteSpace=wrap;html=1;" vertex="1" parent="WIyWlLk6GJQsqaUBKTNV-1">
          <mxGeometry x="125" y="800" width="90" height="90" as="geometry" />
        </mxCell>
        <mxCell id="BuEJ6Aap__L7EWb8mCtW-21" style="edgeStyle=orthogonalEdgeStyle;rounded=0;orthogonalLoop=1;jettySize=auto;html=1;entryX=0.5;entryY=0;entryDx=0;entryDy=0;" edge="1" parent="WIyWlLk6GJQsqaUBKTNV-1" source="BuEJ6Aap__L7EWb8mCtW-17" target="BuEJ6Aap__L7EWb8mCtW-20">
          <mxGeometry relative="1" as="geometry" />
        </mxCell>
        <mxCell id="BuEJ6Aap__L7EWb8mCtW-17" value="row++" style="rounded=0;whiteSpace=wrap;html=1;" vertex="1" parent="WIyWlLk6GJQsqaUBKTNV-1">
          <mxGeometry x="110" y="940" width="120" height="60" as="geometry" />
        </mxCell>
        <mxCell id="BuEJ6Aap__L7EWb8mCtW-23" style="edgeStyle=orthogonalEdgeStyle;rounded=0;orthogonalLoop=1;jettySize=auto;html=1;entryX=0.5;entryY=0;entryDx=0;entryDy=0;" edge="1" parent="WIyWlLk6GJQsqaUBKTNV-1" source="BuEJ6Aap__L7EWb8mCtW-20" target="BuEJ6Aap__L7EWb8mCtW-22">
          <mxGeometry relative="1" as="geometry" />
        </mxCell>
        <mxCell id="BuEJ6Aap__L7EWb8mCtW-20" value="col = 0" style="rounded=0;whiteSpace=wrap;html=1;" vertex="1" parent="WIyWlLk6GJQsqaUBKTNV-1">
          <mxGeometry x="110" y="1030" width="120" height="60" as="geometry" />
        </mxCell>
        <mxCell id="BuEJ6Aap__L7EWb8mCtW-25" style="edgeStyle=orthogonalEdgeStyle;rounded=0;orthogonalLoop=1;jettySize=auto;html=1;entryX=0.5;entryY=0;entryDx=0;entryDy=0;" edge="1" parent="WIyWlLk6GJQsqaUBKTNV-1" source="BuEJ6Aap__L7EWb8mCtW-22" target="BuEJ6Aap__L7EWb8mCtW-24">
          <mxGeometry relative="1" as="geometry" />
        </mxCell>
        <mxCell id="BuEJ6Aap__L7EWb8mCtW-26" value="True" style="edgeLabel;html=1;align=center;verticalAlign=middle;resizable=0;points=[];" vertex="1" connectable="0" parent="BuEJ6Aap__L7EWb8mCtW-25">
          <mxGeometry x="-0.34" y="1" relative="1" as="geometry">
            <mxPoint as="offset" />
          </mxGeometry>
        </mxCell>
        <mxCell id="BuEJ6Aap__L7EWb8mCtW-48" style="edgeStyle=orthogonalEdgeStyle;rounded=0;orthogonalLoop=1;jettySize=auto;html=1;entryX=1;entryY=0.5;entryDx=0;entryDy=0;" edge="1" parent="WIyWlLk6GJQsqaUBKTNV-1" source="BuEJ6Aap__L7EWb8mCtW-22" target="BuEJ6Aap__L7EWb8mCtW-47">
          <mxGeometry relative="1" as="geometry" />
        </mxCell>
        <mxCell id="BuEJ6Aap__L7EWb8mCtW-50" value="False" style="edgeLabel;html=1;align=center;verticalAlign=middle;resizable=0;points=[];" vertex="1" connectable="0" parent="BuEJ6Aap__L7EWb8mCtW-48">
          <mxGeometry x="-0.2379" y="1" relative="1" as="geometry">
            <mxPoint as="offset" />
          </mxGeometry>
        </mxCell>
        <mxCell id="BuEJ6Aap__L7EWb8mCtW-22" value="col &amp;lt; 9" style="rhombus;whiteSpace=wrap;html=1;" vertex="1" parent="WIyWlLk6GJQsqaUBKTNV-1">
          <mxGeometry x="125" y="1120" width="90" height="90" as="geometry" />
        </mxCell>
        <mxCell id="BuEJ6Aap__L7EWb8mCtW-28" style="edgeStyle=orthogonalEdgeStyle;rounded=0;orthogonalLoop=1;jettySize=auto;html=1;entryX=0.5;entryY=0;entryDx=0;entryDy=0;" edge="1" parent="WIyWlLk6GJQsqaUBKTNV-1" source="BuEJ6Aap__L7EWb8mCtW-24" target="BuEJ6Aap__L7EWb8mCtW-27">
          <mxGeometry relative="1" as="geometry" />
        </mxCell>
        <mxCell id="BuEJ6Aap__L7EWb8mCtW-24" value="col++" style="rounded=0;whiteSpace=wrap;html=1;" vertex="1" parent="WIyWlLk6GJQsqaUBKTNV-1">
          <mxGeometry x="110" y="1260" width="120" height="60" as="geometry" />
        </mxCell>
        <mxCell id="BuEJ6Aap__L7EWb8mCtW-30" style="edgeStyle=orthogonalEdgeStyle;rounded=0;orthogonalLoop=1;jettySize=auto;html=1;entryX=0.5;entryY=0;entryDx=0;entryDy=0;" edge="1" parent="WIyWlLk6GJQsqaUBKTNV-1" source="BuEJ6Aap__L7EWb8mCtW-27" target="BuEJ6Aap__L7EWb8mCtW-29">
          <mxGeometry relative="1" as="geometry" />
        </mxCell>
        <mxCell id="BuEJ6Aap__L7EWb8mCtW-31" value="True" style="edgeLabel;html=1;align=center;verticalAlign=middle;resizable=0;points=[];" vertex="1" connectable="0" parent="BuEJ6Aap__L7EWb8mCtW-30">
          <mxGeometry x="-0.3733" y="-1" relative="1" as="geometry">
            <mxPoint as="offset" />
          </mxGeometry>
        </mxCell>
        <mxCell id="BuEJ6Aap__L7EWb8mCtW-33" style="edgeStyle=orthogonalEdgeStyle;rounded=0;orthogonalLoop=1;jettySize=auto;html=1;entryX=0;entryY=0.5;entryDx=0;entryDy=0;" edge="1" parent="WIyWlLk6GJQsqaUBKTNV-1" source="BuEJ6Aap__L7EWb8mCtW-27" target="BuEJ6Aap__L7EWb8mCtW-32">
          <mxGeometry relative="1" as="geometry" />
        </mxCell>
        <mxCell id="BuEJ6Aap__L7EWb8mCtW-35" value="False" style="edgeLabel;html=1;align=center;verticalAlign=middle;resizable=0;points=[];" vertex="1" connectable="0" parent="BuEJ6Aap__L7EWb8mCtW-33">
          <mxGeometry x="-0.3095" y="-2" relative="1" as="geometry">
            <mxPoint as="offset" />
          </mxGeometry>
        </mxCell>
        <mxCell id="BuEJ6Aap__L7EWb8mCtW-27" value="&lt;font style=&quot;font-size: 10px;&quot;&gt;soalSudoku[i]&lt;/font&gt;&lt;div&gt;&lt;font style=&quot;font-size: 10px;&quot;&gt;[row][col] == 0&lt;/font&gt;&lt;/div&gt;" style="rhombus;whiteSpace=wrap;html=1;" vertex="1" parent="WIyWlLk6GJQsqaUBKTNV-1">
          <mxGeometry x="120" y="1350" width="100" height="100" as="geometry" />
        </mxCell>
        <mxCell id="BuEJ6Aap__L7EWb8mCtW-46" style="edgeStyle=orthogonalEdgeStyle;rounded=0;orthogonalLoop=1;jettySize=auto;html=1;entryX=1;entryY=0.5;entryDx=0;entryDy=0;" edge="1" parent="WIyWlLk6GJQsqaUBKTNV-1" source="BuEJ6Aap__L7EWb8mCtW-29" target="BuEJ6Aap__L7EWb8mCtW-22">
          <mxGeometry relative="1" as="geometry">
            <Array as="points">
              <mxPoint x="410" y="1530" />
              <mxPoint x="410" y="1165" />
            </Array>
          </mxGeometry>
        </mxCell>
        <mxCell id="BuEJ6Aap__L7EWb8mCtW-29" value="Display&lt;div&gt;&quot;. &quot;&lt;/div&gt;" style="shape=parallelogram;perimeter=parallelogramPerimeter;whiteSpace=wrap;html=1;fixedSize=1;" vertex="1" parent="WIyWlLk6GJQsqaUBKTNV-1">
          <mxGeometry x="110" y="1500" width="120" height="60" as="geometry" />
        </mxCell>
        <mxCell id="BuEJ6Aap__L7EWb8mCtW-45" style="edgeStyle=orthogonalEdgeStyle;rounded=0;orthogonalLoop=1;jettySize=auto;html=1;entryX=1;entryY=0.5;entryDx=0;entryDy=0;" edge="1" parent="WIyWlLk6GJQsqaUBKTNV-1" source="BuEJ6Aap__L7EWb8mCtW-32" target="BuEJ6Aap__L7EWb8mCtW-22">
          <mxGeometry relative="1" as="geometry">
            <Array as="points">
              <mxPoint x="410" y="1400" />
              <mxPoint x="410" y="1165" />
            </Array>
          </mxGeometry>
        </mxCell>
        <mxCell id="BuEJ6Aap__L7EWb8mCtW-32" value="Display&lt;div&gt;soalSudoku[i]&lt;/div&gt;&lt;div&gt;[row][col]&lt;br&gt;&lt;/div&gt;" style="shape=parallelogram;perimeter=parallelogramPerimeter;whiteSpace=wrap;html=1;fixedSize=1;" vertex="1" parent="WIyWlLk6GJQsqaUBKTNV-1">
          <mxGeometry x="270" y="1370" width="120" height="60" as="geometry" />
        </mxCell>
        <mxCell id="BuEJ6Aap__L7EWb8mCtW-51" style="edgeStyle=orthogonalEdgeStyle;rounded=0;orthogonalLoop=1;jettySize=auto;html=1;entryX=0;entryY=0.5;entryDx=0;entryDy=0;exitX=0.5;exitY=0;exitDx=0;exitDy=0;" edge="1" parent="WIyWlLk6GJQsqaUBKTNV-1" source="BuEJ6Aap__L7EWb8mCtW-47" target="BuEJ6Aap__L7EWb8mCtW-15">
          <mxGeometry relative="1" as="geometry">
            <Array as="points">
              <mxPoint x="10" y="845" />
            </Array>
          </mxGeometry>
        </mxCell>
        <mxCell id="BuEJ6Aap__L7EWb8mCtW-47" value="Enter" style="shape=parallelogram;perimeter=parallelogramPerimeter;whiteSpace=wrap;html=1;fixedSize=1;" vertex="1" parent="WIyWlLk6GJQsqaUBKTNV-1">
          <mxGeometry x="-50" y="1135" width="120" height="60" as="geometry" />
        </mxCell>
        <mxCell id="BuEJ6Aap__L7EWb8mCtW-54" value="Enter" style="shape=parallelogram;perimeter=parallelogramPerimeter;whiteSpace=wrap;html=1;fixedSize=1;" vertex="1" parent="WIyWlLk6GJQsqaUBKTNV-1">
          <mxGeometry x="294" y="815" width="120" height="60" as="geometry" />
        </mxCell>
      </root>
    </mxGraphModel>
  </diagram>
</mxfile>
